<?xml version="1.0" encoding="UTF-8"?><svg id="uuid-996b7df6-edb9-4f47-809d-6eab9d3ee94b" xmlns="http://www.w3.org/2000/svg" viewBox="0 0 249.99 30.42"><defs><style>.uuid-103c0053-90b8-4da8-a941-9d1df9c93f49{fill:#fff;}</style></defs><path class="uuid-103c0053-90b8-4da8-a941-9d1df9c93f49" d="M24.12,25.19c0,.21-.14,.49-.42,.84-2.46,2.92-5.72,4.38-9.79,4.38s-7.54-1.42-10.13-4.26C1.26,23.41,0,19.94,0,15.75S1.23,8.24,3.7,5.41C6.28,2.45,9.56,.97,13.53,.97c4.32,0,7.71,1.33,10.17,3.98,.27,.29,.4,.55,.4,.78,0,.25-.46,1.19-1.39,2.82-.93,1.63-1.51,2.54-1.75,2.74-.11,.11-.24,.16-.4,.16-.07,0-.4-.27-1-.8-.72-.64-1.43-1.14-2.12-1.5-1.05-.53-2.15-.8-3.28-.8-1.96,0-3.53,.73-4.7,2.2-1.08,1.36-1.62,3.04-1.62,5.04s.54,3.73,1.62,5.11c1.17,1.5,2.74,2.24,4.7,2.24,1.16,0,2.26-.25,3.3-.76,.68-.33,1.37-.8,2.08-1.4,.59-.51,.91-.76,.98-.76,.13,0,.27,.07,.4,.22,.21,.24,.79,1.08,1.74,2.5,.97,1.48,1.46,2.3,1.46,2.44Z"/><path class="uuid-103c0053-90b8-4da8-a941-9d1df9c93f49" d="M44.34,18.95c0,3.04-.93,5.51-2.79,7.41-1.86,1.9-4.31,2.84-7.34,2.84s-5.35-.93-7.25-2.8c-1.9-1.87-2.84-4.27-2.84-7.21,0-3.1,.91-5.61,2.72-7.54,1.81-1.93,4.27-2.89,7.37-2.89s5.46,.94,7.33,2.83c1.87,1.89,2.8,4.34,2.8,7.36Zm-6.57,0c0-1.05-.33-1.99-.98-2.79-.65-.81-1.5-1.21-2.54-1.21s-1.92,.41-2.6,1.24c-.64,.77-.96,1.7-.96,2.76s.32,2.01,.96,2.78c.68,.83,1.55,1.24,2.6,1.24s1.9-.41,2.58-1.24c.63-.77,.94-1.7,.94-2.78Z"/><path class="uuid-103c0053-90b8-4da8-a941-9d1df9c93f49" d="M51.93,16.91c0,3.64,.01,6.44,.04,8.39,0,.31,.02,.83,.06,1.58,.04,.68,.06,1.21,.06,1.58,0,.28-.17,.45-.5,.5-.6,.11-1.68,.16-3.24,.16s-2.62-.05-3.06-.16c-.29-.07-.46-.25-.5-.54v-.86c0-1.19,.01-2.97,.04-5.33,.03-2.37,.04-4.14,.04-5.32,0-5.61,0-8.16,.02-7.67-.04-2.95-.21-5.49-.5-7.63-.03-.15-.04-.26-.04-.34,0-.29,.17-.44,.52-.44h7.15c.33,0,.49,.14,.46,.42l-.02,.36c-.35,5.77-.52,10.86-.52,15.3Z"/><path class="uuid-103c0053-90b8-4da8-a941-9d1df9c93f49" d="M73.84,19.66c0,3.04-.93,5.51-2.79,7.41-1.86,1.9-4.29,1.73-7.32,1.73s-5.37,.18-7.27-1.69c-1.9-1.87-2.84-4.27-2.84-7.21,0-3.1,.91-5.61,2.72-7.54,1.81-1.93,4.27-2.89,7.37-2.89s5.46,.94,7.33,2.83c1.87,1.89,2.8,4.34,2.8,7.36Zm-6.57,0c0-1.05-.33-1.99-.98-2.79-.65-.81-1.5-1.21-2.54-1.21s-1.92,.41-2.6,1.24c-.64,.77,3.14,1.73,3.14,2.79s-3.78,1.98-3.14,2.75c.68,.83,1.55,1.24,2.6,1.24s1.9-.41,2.58-1.24c.63-.77,.94-1.7,.94-2.78Z"/><path class="uuid-103c0053-90b8-4da8-a941-9d1df9c93f49" d="M87.71,15.65c0,.52-.29,.78-.86,.78-.25,0-.62-.02-1.11-.05-.49-.03-.85-.05-1.09-.05-1.11,0-1.19,1.01-1.59,1.35-.4,.35-1.28,.21-1.28,1.27,0,.57,0,1.44,.03,2.61,.02,1.17,.03,2.04,.03,2.61,0,.39,.03,.96,.08,1.73,.05,.77,.08,1.34,.08,1.71,0,.32-.22,.5-.66,.54-.64,.05-1.62,.08-2.94,.08s-2.28-.04-3.04-.12c-.44-.05-.66-.27-.66-.66,0-1.07,0-2.67,.02-4.79,.01-2.13,.02-3.73,.02-4.79,0-3.14-.29-5.72-.86-7.75-.03-.12-.04-.22-.04-.3,0-.2,.1-.33,.3-.4,.73-.08,1.81-.23,3.22-.44,2.11-.41,3.2-.62,3.26-.62,.24,0,.39,.42,.46,1.26,.07,.84,.19,1.26,.36,1.26-.19,0,.36-.35,1.64-1.05,1.28-.7,2.52-1.05,3.7-1.05,.75,0,1.12,.16,1.12,.48,0,.39-.04,.93-.12,1.64-.08,.76-.13,1.31-.14,1.64,0,.39,0,.9,.02,1.54,.03,.79,.04,1.31,.04,1.56Z"/><path class="uuid-103c0053-90b8-4da8-a941-9d1df9c93f49" d="M115.72,28.11c.03,.36-.16,.54-.56,.54-.25,0-9.89,.6-12.45,.6-4.12,0-7.51-1.37-10.15-4.12-2.62-2.71-3.92-6.13-3.92-10.27s1.27-7.74,3.8-10.53c2.62-2.88,6.01-4.32,10.19-4.32,2.03,0,3.94,.39,5.72,1.16,1.94,.85,3.46,2.06,4.56,3.6,.23,.32,.34,.55,.34,.68,0,.43-.6,1.38-1.79,2.87s-1.96,2.23-2.31,2.23c-.08,0-.39-.27-.92-.82-.65-.65-1.32-1.16-2-1.52-1.02-.55-2.14-.82-3.36-.82-2,0-3.59,.75-4.77,2.24-1.09,1.38-1.64,3.09-1.64,5.15,0,2.18,.57,3.9,1.7,5.17,1.17,1.31,2.84,1.96,4.98,1.96,1.36,0,4.4-2.58,4.21-4.38-.17-1.39-.26-2.51-.26-3.36,0-.25,.09-.41,.26-.46,.07-.03,.17-.04,.32-.04,.39,0,.97,.04,1.75,.11,.78,.07,1.37,.11,1.77,.11,.43,0,1.07-.03,1.92-.09,.85-.06,1.49-.09,1.92-.09,.33,0,.5,.22,.5,.66,0,.64-.04,1.61-.11,2.9-.07,1.29-.11,2.26-.11,2.9,0,1.72,.13,4.3,.38,7.73l.02,.22Z"/><path class="uuid-103c0053-90b8-4da8-a941-9d1df9c93f49" d="M131.31,16.49c0,.52-.29,.78-.86,.78-.25,0-.62-.02-1.11-.05-.49-.03-.85-.05-1.09-.05-1.11,0-1.86,.17-2.26,.52-.4,.35-.6,1.05-.6,2.1,0,.57,0,1.44,.03,2.61,.02,1.17,.03,2.04,.03,2.61,0,.39,.03,.96,.08,1.73,.05,.77,.08,1.34,.08,1.71,0,.32-.22,.5-.66,.54-.64,.05-1.62,.08-2.94,.08s-2.28-.04-3.04-.12c-.44-.05-.66-.27-.66-.66,0-1.07,0-2.67,.02-4.79,.01-2.13,.02-3.73,.02-4.79,0-3.14-.29-5.72-.86-7.75-.03-.12-.04-.22-.04-.3,0-.2,.1-.33,.3-.4,.73-.08,1.81-.23,3.22-.44,2.11-.41,3.2-.62,3.26-.62,.24,0,.39,.42,.46,1.26,.07,.84,.19,1.26,.36,1.26-.19,0,.36-.35,1.64-1.05,1.28-.7,2.52-1.05,3.7-1.05,.75,0,1.12,.16,1.12,.48,0,.39-.04,.93-.12,1.64-.08,.76-.13,1.31-.14,1.64,0,.39,0,.9,.02,1.54,.03,.79,.04,1.31,.04,1.56Z"/><path class="uuid-103c0053-90b8-4da8-a941-9d1df9c93f49" d="M153.45,18.67c0,1.03,.06,2.56,.18,4.58,.12,2.03,.18,3.55,.18,4.56,0,.53-.23,.82-.7,.86-1.65,.12-3.55,.18-5.69,.18-.25,0-.42-.38-.51-1.15-.09-.77-.19-1.16-.31-1.17-.11,.05-.25,.17-.42,.34-1.5,1.51-3.1,2.26-4.8,2.26-2.6,0-4.76-1.03-6.47-3.08-1.62-1.92-2.42-4.22-2.42-6.89,0-3.08,.83-5.57,2.5-7.45,1.73-1.95,4.11-2.92,7.13-2.92,2.09,0,3.75,.73,4.96,2.2,.05,.07,.4-.22,.55-.87,.15-.65,.34-.97,.55-.97,.49,0,1.43,.14,2.82,.42,1.32,.27,2.27,.49,2.84,.68,.2,.08,.3,.19,.3,.32,0,.05-.02,.19-.06,.42-.43,2.42-.64,4.97-.64,7.67Zm-6.45,.12c0-1.13-.36-2.07-1.07-2.81-.71-.74-1.64-1.11-2.79-1.11s-2.08,.37-2.78,1.1c-.71,.73-1.06,1.68-1.06,2.82,0,1.08,.37,2.01,1.12,2.78,.75,.77,1.65,1.16,2.72,1.16,1.13,0,2.06-.37,2.78-1.11,.72-.74,1.08-1.69,1.08-2.83Z"/><path class="uuid-103c0053-90b8-4da8-a941-9d1df9c93f49" d="M178.33,.55c0-.29-.05,.15-.16,1.32-.15,1.48-.26,3.38-.34,5.69-.11,2.62-.16,5.59-.16,8.93,0,5.51,.15,9.44,.46,11.77,.03,.25,.04,.41,.04,.48,0,.15-.1,.23-.3,.26-.48,.07-2.25,.1-5.31,.1-.72,0-1.13-.14-1.24-.42-.03-.51-.05-1.01-.08-1.52-.01-.11-.07-.21-.16-.32-.08,.04-.18,.12-.3,.24-1.44,1.42-3.24,2.12-5.41,2.12-2.82,0-5.07-.99-6.77-2.96-1.62-1.88-2.42-4.26-2.42-7.13s.79-5.31,2.38-7.19c1.68-2,3.95-3,6.81-3,2.01,0,3.58,.64,4.7,1.92,.19,.21,.32,.32,.4,.32,.12,0,.18-.17,.18-.52,0-1.03-.03-2.56-.08-4.6-.05-2.04-.08-3.57-.08-4.58,0-.39,.11-.61,.32-.66,.85-.04,2.03-.12,3.52-.24,2.67-.33,3.85-.5,3.54-.5,.29,0,.44,.17,.44,.5Zm-7.55,18.4c0-1.05-.37-1.98-1.1-2.77-.73-.79-1.62-1.19-2.66-1.19-1.09,0-1.97,.4-2.61,1.19-.65,.79-.97,1.75-.97,2.85s.33,2,.98,2.74c.67,.8,1.53,1.2,2.6,1.2s1.96-.4,2.68-1.2,1.08-1.74,1.08-2.82Z"/><path class="uuid-103c0053-90b8-4da8-a941-9d1df9c93f49" d="M188.92,19.15c0,.97,.02,2.43,.06,4.35s.06,3.37,.06,4.33c0,.28-.17,.45-.5,.5-.45,.08-1.47,.12-3.06,.12s-2.63-.04-3.08-.12c-.29-.05-.47-.14-.54-.26-.03-.05-.04-.25-.04-.6,0-.92,.02-2.3,.06-4.15,.04-1.85,.06-3.24,.06-4.17,0-3.79-.15-6.81-.44-9.05-.03-.21-.04-.35-.04-.42,0-.27,.18-.4,.54-.4s.94,.04,1.71,.12,1.34,.12,1.73,.12,.97-.03,1.74-.1c.77-.07,1.35-.1,1.74-.1,.32,0,.48,.13,.48,.4,0,.05-.01,.18-.04,.38-.29,2.6-.44,5.62-.44,9.05Zm.52-14.87c0,2.32-1.31,3.48-3.92,3.48-1.12,0-2.05-.29-2.78-.88-.8-.64-1.2-1.51-1.2-2.6s.41-1.9,1.24-2.56c.76-.61,1.67-.92,2.74-.92s1.94,.31,2.7,.94c.81,.67,1.22,1.52,1.22,2.54Z"/><path class="uuid-103c0053-90b8-4da8-a941-9d1df9c93f49" d="M210.73,18.09c0,1.35-.43,2.12-1.3,2.3-.15,.03-1.53,.17-4.14,.44-1.57,.17-3.92,.38-7.05,.62,.19,.87,.75,1.53,1.7,1.98,.77,.37,1.65,.56,2.64,.56,1.19,0,2.38-.32,3.58-.96,.51-.32,1.01-.64,1.52-.96,.28,.13,.75,.81,1.41,2.04,.66,1.23,.99,2.01,.99,2.34,0,.09-.1,.25-.3,.46-1.63,1.75-4.16,2.62-7.59,2.62-3.18,0-5.74-.93-7.69-2.78-2-1.88-3-4.4-3-7.55s.89-5.59,2.68-7.55c1.84-2.03,4.28-3.04,7.33-3.04,2.56,0,4.74,.93,6.53,2.8,1.79,1.87,2.68,4.09,2.68,6.67Zm-7.01-1.22c0-.83-.29-1.55-.88-2.18-.59-.63-1.29-.94-2.1-.94s-1.54,.35-2.08,1.06c-.51,.65-.76,1.42-.76,2.3,0,.36,.19,.54,.56,.54,.99,0,2.52-.15,4.6-.46,.44-.07,.66-.17,.66-.32Z"/><path class="uuid-103c0053-90b8-4da8-a941-9d1df9c93f49" d="M233.22,27.56c0,.36-.19,.57-.56,.62-.37,.05-1.35,.08-2.92,.08-1.68,0-2.72-.04-3.12-.12s-.6-.35-.6-.82c0-.63,.02-1.57,.06-2.84,.04-1.27,.06-2.22,.06-2.86,0-.49-.01-1.23-.04-2.21-.03-.98-.04-1.72-.04-2.21,0-1.83-.79-2.74-2.38-2.74-.52,0-1.13,.23-1.82,.68-.75,.51-1.12,1.01-1.12,1.5v10.81c0,.44-.21,.69-.62,.74-.47,.05-1.42,.08-2.86,.08-1.56,0-2.58-.04-3.04-.12-.41-.07-.62-.29-.62-.66,0-1.04,0-2.61,.02-4.7,.01-2.1,.02-3.67,.02-4.72,0-3.32-.26-5.93-.78-7.83-.03-.12-.04-.22-.04-.3,0-.21,.1-.36,.3-.44,.84-.09,1.96-.24,3.36-.44,2.12-.41,3.32-.62,3.58-.62,.15,0,.26,.45,.34,1.35,.08,.9,.19,1.35,.34,1.35-.15,0,.57-.46,2.15-1.39,1.58-.93,2.97-1.39,4.15-1.39,1.69,0,3.11,.4,4.24,1.2,1.27,.92,1.9,2.2,1.9,3.84v6.39c0,.87,0,2.17,.02,3.89,.01,1.73,.02,3.03,.02,3.89Z"/><path class="uuid-103c0053-90b8-4da8-a941-9d1df9c93f49" d="M249.99,22.63c0,.4-.05,1.01-.15,1.82-.1,.81-.15,1.41-.15,1.79s-.04,.62-.12,.73-.3,.26-.66,.46c-1.72,.95-3.63,1.42-5.73,1.42-3.86,0-5.79-1.47-5.79-4.42,0-.88,.03-2.21,.1-3.97,.07-1.77,.1-3.09,.1-3.97,0-.59-.34-.88-1.02-.88h-.26c-.12,.01-.21,.02-.26,.02-.51,0-.76-.18-.76-.54,0-.21,.02-.54,.05-.98s.05-.77,.05-.98c0-.28-.02-.71-.05-1.28-.03-.57-.05-1-.05-1.28s.43-.41,1.28-.44c.48-.01,.74-.15,.78-.4,.08-.51,.11-1.31,.08-2.4-.05-1.72-.08-2.54-.08-2.46,0-1.55,.15-2.32,.44-2.32,.36,0,.87,.08,1.54,.24,.76,.17,1.29,.27,1.58,.3,.68,.09,1.71,.22,3.08,.38,.33,.03,.5,.14,.5,.34,0,.53-.04,1.34-.13,2.42-.09,1.08-.13,1.9-.13,2.44,0,.65,.19,.98,.58,.98,.47,0,1.17-.02,2.12-.06,.95-.04,1.66-.06,2.14-.06,.29,0,.44,.1,.44,.3,0,.31-.03,.77-.1,1.38-.07,.61-.1,1.07-.1,1.38s0,.79,.02,1.4c.01,.61,.02,1.08,.02,1.4,0,.28-.19,.42-.58,.42-.27,0-.71,0-1.34-.03-.63-.02-1.08-.03-1.34-.03h-1.5c-.2,0-.3,.29-.3,.88v1.42c.01,.64,.02,1.11,.02,1.42,0,1.12,.13,1.9,.38,2.32,.36,.57,1.07,.86,2.12,.86,.33,0,.81-.08,1.43-.23,.62-.15,1.06-.23,1.31-.23,.28,0,.42,.15,.42,.44Z"/></svg>